<?xml version="1.0" encoding="iso-8859-1"?>
<!-- Generator: Adobe Illustrator 19.0.0, SVG Export Plug-In . SVG Version: 6.00 Build 0)  -->
<svg version="1.1" id="Capa_1" xmlns="http://www.w3.org/2000/svg" xmlns:xlink="http://www.w3.org/1999/xlink" x="0px" y="0px"
	 viewBox="0 0 512.001 512.001" style="enable-background:new 0 0 512.001 512.001;" xml:space="preserve">
<path style="fill:#18A7FC;" d="M255.999,511.996c-8.478,0-15.351-6.873-15.351-15.351V299.697c0-8.478,6.873-15.351,15.351-15.351
	c8.478,0,15.351,6.873,15.351,15.351v196.95C271.35,505.124,264.477,511.996,255.999,511.996z"/>
<path style="fill:#136EF1;" d="M255.999,284.347L255.999,284.347v227.65l0,0c8.478,0,15.351-6.873,15.351-15.351V299.697
	C271.35,291.22,264.477,284.347,255.999,284.347z"/>
<path style="fill:#CFEEFF;" d="M357.728,434.319H155.674c-8.478,0-15.351-6.873-15.351-15.35c0-8.478,6.873-15.351,15.351-15.351
	h202.054c8.478,0,15.351,6.873,15.351,15.351C373.078,427.446,366.206,434.319,357.728,434.319z"/>
<path style="fill:#18A7FC;" d="M255.999,315.048c-48.237,0-93.693-16.185-127.992-45.573
	c-34.978-29.97-54.241-70.017-54.241-112.764c0-8.478,6.873-15.351,15.351-15.351h333.768c8.478,0,15.35,6.873,15.35,15.351
	c0,42.747-19.264,82.794-54.241,112.764C349.692,298.863,304.237,315.048,255.999,315.048z"/>
<path style="fill:#ABE2FF;" d="M357.728,403.618H255.999v30.7h101.729c8.478,0,15.351-6.873,15.351-15.351
	C373.078,410.491,366.206,403.618,357.728,403.618z"/>
<path style="fill:#18A7FC;" d="M128.421,512.001c-1.686,0-3.4-0.28-5.082-0.87c-8-2.807-12.21-11.567-9.403-19.567l71.267-203.13
	c2.806-7.999,11.561-12.211,19.567-9.403c8,2.807,12.21,11.567,9.403,19.567l-71.267,203.13
	C140.689,508.046,134.758,512.001,128.421,512.001z"/>
<g>
	<path style="fill:#FE9923;" d="M184.17,124.591c-3.638,0-7.288-1.285-10.216-3.898c-6.325-5.645-6.876-15.35-1.231-21.674
		c10.73-12.021,2.375-22.11-0.37-25.425c-21.235-25.642-12.541-52.911,1.359-68.47c5.65-6.321,15.354-6.87,21.674-1.221
		c6.322,5.647,6.87,15.352,1.221,21.674c-5.72,6.402-10.467,16.533-0.61,28.436c20.597,24.872,13.314,50.117-0.37,65.45
		C192.595,122.86,188.392,124.591,184.17,124.591z"/>
	<path style="fill:#FE9923;" d="M249.028,124.591c-3.638,0-7.288-1.285-10.216-3.898c-6.325-5.645-6.876-15.35-1.231-21.674
		c10.73-12.021,2.375-22.11-0.37-25.425c-21.235-25.642-12.541-52.911,1.359-68.47c5.65-6.321,15.354-6.87,21.674-1.221
		c6.322,5.647,6.87,15.352,1.221,21.674c-5.72,6.402-10.467,16.533-0.61,28.436c20.597,24.872,13.314,50.117-0.37,65.45
		C257.453,122.86,253.249,124.591,249.028,124.591z"/>
</g>
<path style="fill:#E4741B;" d="M313.886,124.591c-3.638,0-7.288-1.285-10.216-3.898c-6.325-5.645-6.876-15.35-1.231-21.674
	c10.73-12.021,2.375-22.11-0.37-25.425c-21.235-25.642-12.541-52.911,1.359-68.47c5.65-6.321,15.354-6.87,21.674-1.221
	c6.322,5.647,6.87,15.352,1.221,21.674c-5.72,6.402-10.467,16.533-0.61,28.436c20.597,24.872,13.314,50.117-0.37,65.45
	C322.31,122.86,318.107,124.591,313.886,124.591z"/>
<path style="fill:#136EF1;" d="M422.883,141.359H255.999v173.687l0,0c48.237,0,93.693-16.185,127.992-45.573
	c34.978-29.97,54.241-70.017,54.241-112.764C438.234,148.232,431.361,141.359,422.883,141.359z"/>
<g>
	<path style="fill:#E4741B;" d="M255.999,45.482v77.419c1.649-0.84,3.18-1.975,4.486-3.438c13.683-15.332,20.966-40.577,0.37-65.45
		C258.401,51.05,256.853,48.196,255.999,45.482z"/>
	<path style="fill:#E4741B;" d="M260.244,3.903c-1.293-1.156-2.733-2.038-4.245-2.678v33.527c1.118-3.556,3.215-6.655,5.466-9.174
		C267.114,19.254,266.566,9.551,260.244,3.903z"/>
</g>
<path style="fill:#136EF1;" d="M384.997,512.001c-6.336,0-12.267-3.953-14.484-10.269l-71.331-203.195
	c-2.808-7.999,1.4-16.76,9.4-19.569c7.999-2.807,16.761,1.4,19.569,9.4l71.331,203.195c2.808,7.999-1.4,16.76-9.4,19.569
	C388.4,511.72,386.683,512.001,384.997,512.001z"/>
<g>
</g>
<g>
</g>
<g>
</g>
<g>
</g>
<g>
</g>
<g>
</g>
<g>
</g>
<g>
</g>
<g>
</g>
<g>
</g>
<g>
</g>
<g>
</g>
<g>
</g>
<g>
</g>
<g>
</g>
</svg>
