<?xml version="1.0" encoding="iso-8859-1"?>
<!-- Generator: Adobe Illustrator 19.0.0, SVG Export Plug-In . SVG Version: 6.00 Build 0)  -->
<svg version="1.1" id="Capa_1" xmlns="http://www.w3.org/2000/svg" xmlns:xlink="http://www.w3.org/1999/xlink" x="0px" y="0px"
	 viewBox="0 0 512.002 512.002" style="enable-background:new 0 0 512.002 512.002;" xml:space="preserve">
<path style="fill:#FEE77A;" d="M48.619,478.947c-4.086,0-8.06-1.61-11.012-4.561c-3.737-3.737-5.324-9.115-4.213-14.283
	c0.348-1.62,8.793-40.302,31.655-93.605c21.094-49.182,59.027-120.597,119.943-181.512
	c60.915-60.916,132.329-98.847,181.511-119.942c53.304-22.862,91.985-31.306,93.605-31.655c5.169-1.112,10.546,0.475,14.283,4.213
	c3.737,3.737,5.324,9.115,4.213,14.283c-0.348,1.62-8.793,40.302-31.654,93.605c-21.094,49.182-59.027,120.597-119.943,181.512l0,0
	c-60.915,60.916-132.329,98.847-181.512,119.943C92.192,469.807,53.511,478.252,51.89,478.6
	C50.804,478.833,49.707,478.947,48.619,478.947z"/>
<path style="fill:#333940;" d="M200.379,339.523c-9.657,0-16.029-3.621-20.157-7.75c-7.566-7.565-13.433-22.677,1.586-51.702
	c9.058-17.508,24.182-37.283,42.584-55.685c18.402-18.403,38.178-33.526,55.685-42.584c29.024-15.018,44.137-9.152,51.702-1.586
	c7.566,7.565,13.432,22.677-1.586,51.702c-9.058,17.508-24.182,37.283-42.584,55.685c-18.402,18.403-38.178,33.526-55.685,42.584
	C218.736,337.01,208.42,339.523,200.379,339.523z"/>
<path style="fill:#BF4E15;" d="M507.438,432.583l-51.995-51.995c-24.96-24.96-58.946-39.791-94.125-41.29L172.708,150.687
	c-1.498-35.18-16.336-69.171-41.295-94.13L79.417,4.562C76.496,1.641,72.535,0,68.406,0c-4.13,0-8.091,1.641-11.012,4.561
	L4.561,57.396c-6.081,6.081-6.081,15.941,0,22.022l51.995,51.995c24.959,24.96,58.946,39.79,94.125,41.29l188.612,188.612
	c1.498,35.179,16.336,69.171,41.295,94.13l51.995,51.995c3.041,3.041,7.026,4.561,11.012,4.561s7.971-1.52,11.012-4.561
	l52.835-52.835c2.92-2.92,4.561-6.882,4.561-11.012C511.999,439.464,510.359,435.504,507.438,432.583z"/>
<path style="fill:#FED019;" d="M478.605,51.886c1.11-5.165-0.475-10.541-4.208-14.278L37.613,474.39
	c2.951,2.949,6.922,4.557,11.006,4.557c1.088,0,2.185-0.115,3.272-0.348c1.62-0.348,40.302-8.793,93.605-31.654
	c49.183-21.094,120.597-59.027,181.512-119.943s98.847-132.33,119.943-181.512C469.812,92.187,478.257,53.507,478.605,51.886z"/>
<path style="fill:#23272B;" d="M331.783,180.221L180.226,331.778c4.128,4.127,10.501,7.746,20.152,7.746
	c8.04,0,18.357-2.513,31.544-9.336c17.508-9.058,37.283-24.182,55.685-42.584c18.403-18.402,33.526-38.178,42.584-55.685
	C345.207,202.899,339.347,187.788,331.783,180.221z"/>
<path style="fill:#994400;" d="M507.438,432.583l-51.995-51.995c-24.96-24.96-58.946-39.791-94.125-41.29l-94.306-94.306
	l-22.022,22.022l94.301,94.301c1.498,35.179,16.336,69.171,41.295,94.13l51.995,51.995c3.04,3.041,7.026,4.561,11.012,4.561
	s7.971-1.52,11.012-4.561l52.835-52.835c2.92-2.92,4.561-6.882,4.561-11.012C511.999,439.464,510.359,435.504,507.438,432.583z"/>
<g>
</g>
<g>
</g>
<g>
</g>
<g>
</g>
<g>
</g>
<g>
</g>
<g>
</g>
<g>
</g>
<g>
</g>
<g>
</g>
<g>
</g>
<g>
</g>
<g>
</g>
<g>
</g>
<g>
</g>
</svg>
