<?xml version="1.0" encoding="iso-8859-1"?>
<!-- Generator: Adobe Illustrator 19.0.0, SVG Export Plug-In . SVG Version: 6.00 Build 0)  -->
<svg version="1.1" id="Capa_1" xmlns="http://www.w3.org/2000/svg" xmlns:xlink="http://www.w3.org/1999/xlink" x="0px" y="0px"
	 viewBox="0 0 512 512" style="enable-background:new 0 0 512 512;" xml:space="preserve">
<path style="fill:#88DE7A;" d="M496.213,505.136H15.787c-5.64,0-10.852-3.009-13.672-7.893c-2.821-4.884-2.821-10.903,0-15.787
	l240.213-416.06c2.82-4.885,8.031-7.894,13.672-7.894c5.64,0,10.852,3.009,13.672,7.894l240.213,416.06
	c2.821,4.884,2.821,10.903,0,15.787C507.065,502.127,501.852,505.136,496.213,505.136z"/>
<path style="fill:#3ABD53;" d="M496.213,505.136c5.64,0,10.852-3.009,13.672-7.893c2.821-4.884,2.821-10.903,0-15.787
	L269.672,65.396c-2.82-4.885-8.031-7.894-13.672-7.894v447.634H496.213z"/>
<path style="fill:#BF4E15;" d="M293.128,8.982c-7.553-4.361-17.207-1.773-21.565,5.778L256,41.715L240.437,14.76
	c-4.359-7.55-14.015-10.138-21.565-5.778c-7.55,4.359-10.137,14.015-5.778,21.565l27.119,46.972v168.198h31.574V77.519
	l27.119-46.972C303.265,22.997,300.678,13.342,293.128,8.982z"/>
<path style="fill:#994400;" d="M293.128,8.982c-7.553-4.361-17.207-1.773-21.565,5.778L256,41.715v204.002h15.787V77.519
	l27.119-46.972C303.265,22.997,300.678,13.342,293.128,8.982z"/>
<path style="fill:#FED019;" d="M364.097,505.136H147.902c-5.342,0-10.323-2.702-13.235-7.18c-2.913-4.478-3.363-10.127-1.196-15.009
	l108.097-243.632c2.531-5.705,8.188-9.385,14.43-9.385c6.242,0,11.899,3.678,14.43,9.385l108.097,243.632
	c2.167,4.883,1.717,10.531-1.196,15.009C374.419,502.435,369.439,505.136,364.097,505.136z"/>
<path style="fill:#FEE77A;" d="M256,229.93c-6.242,0-11.899,3.678-14.43,9.385L133.472,482.947
	c-2.167,4.883-1.717,10.531,1.196,15.009c2.912,4.478,7.892,7.18,13.235,7.18h108.097V229.93H256z"/>
<g>
</g>
<g>
</g>
<g>
</g>
<g>
</g>
<g>
</g>
<g>
</g>
<g>
</g>
<g>
</g>
<g>
</g>
<g>
</g>
<g>
</g>
<g>
</g>
<g>
</g>
<g>
</g>
<g>
</g>
</svg>
